# xmcd CD database file generated by OrangeCD 6.4
#
# Track frame offsets:
#	150
#	1545
#	25489
#	49740
#	69186
#	88682
#	107620
#	128212
#	144787
#	169797
#
# Disc length: 2462 seconds
#
# Revision: 0
# Processed by: cddbd v1.5.2PL0 Copyright (c) Steve Scherf et al.
# Submitted via: OrangeCD 6.4
#
DISCID=72099c0a
DTITLE=Sweet Claudette - Sending You to Man School
DYEAR=2004
DGENRE=
TTITLE0=Endorsement
TTITLE1=Ain't No Fun (When Sweet C Gits The Gun)
TTITLE2=Sending You To Man School
TTITLE3=In Love, Not In Stoopid
TTITLE4=Phantom Lover
TTITLE5=You Don't Know Me That Well
TTITLE6=Been There, Done That
TTITLE7=Drowning (On A Drinking Man)
TTITLE8=Lonely Walls
TTITLE9=Seasons
EXTD=
EXTT0=
EXTT1=
EXTT2=
EXTT3=
EXTT4=
EXTT5=
EXTT6=
EXTT7=
EXTT8=
EXTT9=
PLAYORDER=
